<?xml version="1.0" encoding="UTF-8"?>
<svg width="44px" height="44px" viewBox="0 0 44 44" version="1.1" xmlns="http://www.w3.org/2000/svg" xmlns:xlink="http://www.w3.org/1999/xlink">
    <title>算法模型升级</title>
    <g id="页面-1" stroke="none" stroke-width="1" fill="none" fill-rule="evenodd">
        <g id="算法模型升级">
            <rect id="矩形" fill="#FF0000" opacity="0" x="0" y="0" width="44" height="44"></rect>
            <g id="编组-10" transform="translate(3.000000, 4.000000)">
                <rect id="矩形" fill="#0084FE" opacity="0.198009673" x="17" y="14" width="21" height="22" rx="10.5"></rect>
                <g id="编组-3" stroke="#000000" stroke-width="2.5">
                    <path d="M15.625,2.81458256 C17.0946551,1.96607679 18.9053449,1.96607679 20.375,2.81458256 L29.9634573,8.35048095 C30.6982848,8.77473384 31.2920348,9.37888611 31.7020779,10.0891016 C32.112121,10.7993171 32.3384573,11.6155958 32.3384573,12.4641016 L32.3384573,23.5358984 C32.3384573,24.3844042 32.112121,25.2006829 31.7020779,25.9108984 C31.2920348,26.6211139 30.6982848,27.2252662 29.9634573,27.6495191 L20.375,33.1854174 C18.9053449,34.0339232 17.0946551,34.0339232 15.625,33.1854174 L6.03654273,27.6495191 C4.56688762,26.8010133 3.66154273,25.2329099 3.66154273,23.5358984 L3.66154273,12.4641016 C3.66154273,10.7670901 4.56688762,9.19898672 6.03654273,8.35048095 Z" id="多边形"></path>
                    <polyline id="路径-5" stroke-linecap="round" stroke-linejoin="round" points="9.60045674 13.1546192 17.7767725 17.4652739 17.7767725 26.8252904"></polyline>
                    <line x1="17.7767725" y1="17.4652553" x2="25.8138049" y2="13.1546192" id="路径-6" stroke-linecap="round" stroke-linejoin="round"></line>
                </g>
            </g>
        </g>
    </g>
</svg>