<?xml version="1.0" encoding="UTF-8"?>
<svg width="54px" height="54px" viewBox="0 0 54 54" version="1.1" xmlns="http://www.w3.org/2000/svg" xmlns:xlink="http://www.w3.org/1999/xlink">
    <title>主页-未选中</title>
    <g id="页面-1" stroke="none" stroke-width="1" fill="none" fill-rule="evenodd">
        <g id="主页-未选中">
            <rect id="diban" fill="#D8D8D8" opacity="0" x="0" y="0" width="54" height="54"></rect>
            <path d="M26.1230769,9.29230769 C26.642735,8.9025641 27.357265,8.9025641 27.8769231,9.29230769 L44.6358822,21.8615385 C45.4946043,22.5055755 46,23.5163285 46,24.5897284 L46,43.5897284 C46,45.4731947 44.4731947,47 42.5897284,47 L32.9596635,47 C31.0761971,47 29.5493918,45.4731947 29.5493918,43.5897284 L29.5493918,37.5164183 C29.5493918,36.1084028 28.4079698,34.9669808 26.9999543,34.9669808 L26.8323155,34.9724045 C25.5024463,35.0587285 24.4505232,36.1647306 24.4505303,37.5164183 L24.4505625,43.5897284 C24.4505625,45.4543774 22.9541298,46.969399 21.0966971,46.9995433 L21.0402909,47 L11.4102716,47 C9.52685096,47 8,45.4731947 8,43.5897284 L8,24.5897284 C8,23.5163251 8.5053844,22.505566 9.36411779,21.8615385 Z M28.199999,13.1884617 C27.4888884,12.6551282 26.5111111,12.6551275 25.7999997,13.18846 L11.1179183,24.2 C10.9952404,24.2919856 10.9230769,24.4364038 10.9230769,24.5897284 L10.9230769,43.5897284 C10.9230769,43.8588341 11.1411659,44.0769231 11.4102716,44.0769231 L21.0402909,44.0769231 C21.309351,44.0769231 21.5274856,43.8588341 21.5274856,43.5897284 L21.5274856,37.0086039 C21.5274856,33.9862303 23.9776035,31.5361124 26.9999772,31.5361124 C30.0223508,31.5361124 32.4724688,33.9862303 32.4724688,37.0086039 L32.4724688,43.5897284 C32.4724688,43.8588341 32.6905577,44.0769231 32.9596635,44.0769231 L42.5897284,44.0769231 C42.8588341,44.0769231 43.0769231,43.8588341 43.0769231,43.5897284 L43.0769231,24.5897284 C43.0769231,24.4363883 43.0047103,24.2920012 42.8820361,24.2 Z M27,20 C28.1045695,20 29,20.8954305 29,22 C29,23.1045695 28.1045695,24 27,24 C25.8954305,24 25,23.1045695 25,22 C25,20.8954305 25.8954305,20 27,20 Z" fill="#575757" fill-rule="nonzero"></path>
        </g>
    </g>
</svg>