<?xml version="1.0" encoding="UTF-8"?>
<svg width="54px" height="54px" viewBox="0 0 54 54" version="1.1" xmlns="http://www.w3.org/2000/svg" xmlns:xlink="http://www.w3.org/1999/xlink">
    <title>消息-未选中</title>
    <g id="页面-1" stroke="none" stroke-width="1" fill="none" fill-rule="evenodd">
        <g id="消息-未选中">
            <rect id="diban" fill="#D8D8D8" opacity="0" x="0" y="0" width="54" height="54"></rect>
            <path d="M41.6374737,41.1350325 L29.1262987,41.1350325 L25.1746268,45.5168149 C24.825074,45.9043956 24.2948706,46.0764389 23.7837391,45.9681379 C23.2726077,45.8598369 22.8582012,45.487645 22.6966226,44.9917632 C22.535044,44.4958815 22.6508409,43.9516462 23.0003937,43.5640655 L27.3878903,38.6992038 C27.6652577,38.3916888 28.060384,38.2161039 28.474984,38.2161246 L41.6374737,38.2161246 C42.2839423,38.2161367 42.9039373,37.9598712 43.3610639,37.5037049 C43.8181905,37.0475386 44.0750023,36.4288392 44.0750023,35.7837166 L44.0750023,15.3513615 C44.0750144,14.706231 43.818208,14.0875198 43.3610801,13.6313437 C42.9039522,13.1751675 42.2839502,12.9188958 41.6374737,12.9189079 L13.3625263,12.9189079 C12.7160498,12.9188958 12.0960478,13.1751675 11.6389199,13.6313437 C11.181792,14.0875198 10.9249856,14.706231 10.9249977,15.3513615 L10.9249977,35.7837166 C10.9249977,36.4288392 11.1818095,37.0475386 11.6389361,37.5037049 C12.0960627,37.9598712 12.7160577,38.2161367 13.3625263,38.2161246 L19.6999909,38.2161246 C20.5077067,38.2161246 21.1624897,38.8695444 21.1624897,39.6755785 C21.1624897,40.4816127 20.5077067,41.1350325 19.6999909,41.1350325 L13.3625263,41.1350325 C10.4009661,41.1350325 8,38.7391108 8,35.7837166 L8,15.3513615 C8,12.3959673 10.4009661,10 13.3625263,10 L41.6374737,10 C44.5990339,10 47,12.3959673 47,15.3513615 L47,35.7837166 C47,38.7391108 44.5990339,41.1350325 41.6374737,41.1350325 L41.6374737,41.1350325 Z M36.5,20 C37.3284271,20 38,20.6715729 38,21.5 C38,22.3284271 37.3284271,23 36.5,23 L18.5,23 C17.6715729,23 17,22.3284271 17,21.5 C17,20.6715729 17.6715729,20 18.5,20 L36.5,20 Z M27.5,28 C28.3284271,28 29,28.6715729 29,29.5 C29,30.3284271 28.3284271,31 27.5,31 L18.5,31 C17.6715729,31 17,30.3284271 17,29.5 C17,28.6715729 17.6715729,28 18.5,28 L27.5,28 Z" fill="#575757" fill-rule="nonzero"></path>
        </g>
    </g>
</svg>