<?xml version="1.0" encoding="UTF-8"?>
<svg width="54px" height="54px" viewBox="0 0 54 54" version="1.1" xmlns="http://www.w3.org/2000/svg" xmlns:xlink="http://www.w3.org/1999/xlink">
    <title>主页-选中</title>
    <defs>
        <linearGradient x1="0%" y1="4.52294048%" x2="100%" y2="95.4770595%" id="linearGradient-1">
            <stop stop-color="#009FFF" offset="0%"></stop>
            <stop stop-color="#006CFD" offset="100%"></stop>
        </linearGradient>
        <linearGradient x1="0%" y1="0%" x2="100%" y2="100%" id="linearGradient-2">
            <stop stop-color="#009FFF" offset="0%"></stop>
            <stop stop-color="#006CFD" offset="100%"></stop>
        </linearGradient>
    </defs>
    <g id="页面-1" stroke="none" stroke-width="1" fill="none" fill-rule="evenodd">
        <g id="主页-选中">
            <rect id="diban" fill="#D8D8D8" opacity="0" x="0" y="0" width="54" height="54"></rect>
            <polygon id="矩形" fill="url(#linearGradient-1)" points="9.96075353 23.1818168 27 12.2884615 44.2604111 23.1818168 43 45 31.2254935 44.4856892 29.5493918 34.9669808 27 33.7946205 24.4505168 34.9669808 22.6078173 44.0769231 9.96075353 45"></polygon>
            <path d="M26.1230769,9.29230769 L9.36411779,21.8615385 C8.5053844,22.505566 8,23.5163251 8,24.5897284 L8,43.5897284 C8,45.4731947 9.52685096,47 11.4102716,47 L21.0402909,47 L21.0966971,46.9995433 C22.9541298,46.969399 24.4505625,45.4543774 24.4505625,43.5897284 L24.4505303,37.5164183 C24.4505229,36.1084103 25.5919328,34.9669882 26.9999408,34.9669808 C26.9999453,34.9669808 26.9999498,34.9669808 26.9999543,34.9669808 C28.4079698,34.9669808 29.5493918,36.1084028 29.5493918,37.5164183 L29.5493918,43.5897284 L29.5493918,43.5897284 C29.5493918,45.4731947 31.0761971,47 32.9596635,47 L42.5897284,47 C44.4731947,47 46,45.4731947 46,43.5897284 L46,24.5897284 C46,23.5163285 45.4946043,22.5055755 44.6358822,21.8615385 L27.8769231,9.29230769 C27.357265,8.9025641 26.642735,8.9025641 26.1230769,9.29230769 Z M11.1179183,24.2 L25.7999997,13.18846 C26.5111111,12.6551275 27.4888884,12.6551282 28.199999,13.1884617 L42.8820361,24.2 L42.8820361,24.2 C43.0047103,24.2920012 43.0769231,24.4363883 43.0769231,24.5897284 L43.0769231,43.5897284 C43.0769231,43.8588341 42.8588341,44.0769231 42.5897284,44.0769231 L32.9596635,44.0769231 C32.6905577,44.0769231 32.4724688,43.8588341 32.4724688,43.5897284 L32.4724688,37.0086039 C32.4724688,33.9862303 30.0223508,31.5361124 26.9999772,31.5361124 C23.9776035,31.5361124 21.5274856,33.9862303 21.5274856,37.0086039 L21.5274856,43.5897284 L21.5274856,43.5897284 C21.5274856,43.8588341 21.309351,44.0769231 21.0402909,44.0769231 L11.4102716,44.0769231 C11.1411659,44.0769231 10.9230769,43.8588341 10.9230769,43.5897284 L10.9230769,24.5897284 C10.9230769,24.4364038 10.9952404,24.2919856 11.1179183,24.2 Z" fill="url(#linearGradient-2)"></path>
            <circle fill="#FFFFFF" cx="27" cy="22" r="2"></circle>
        </g>
    </g>
</svg>