<?xml version="1.0" encoding="UTF-8"?>
<svg width="54px" height="54px" viewBox="0 0 54 54" version="1.1" xmlns="http://www.w3.org/2000/svg" xmlns:xlink="http://www.w3.org/1999/xlink">
    <title>设置-未选中 2</title>
    <defs>
        <linearGradient x1="9.1074631%" y1="0%" x2="90.8925369%" y2="100%" id="linearGradient-1">
            <stop stop-color="#009FFF" offset="0%"></stop>
            <stop stop-color="#006CFD" offset="100%"></stop>
        </linearGradient>
        <linearGradient x1="7.04937537%" y1="0%" x2="92.9506246%" y2="100%" id="linearGradient-2">
            <stop stop-color="#009FFF" offset="0%"></stop>
            <stop stop-color="#006CFD" offset="100%"></stop>
        </linearGradient>
        <linearGradient x1="0%" y1="2.31789191%" x2="100%" y2="97.6821081%" id="linearGradient-3">
            <stop stop-color="#009FFF" offset="0%"></stop>
            <stop stop-color="#006CFD" offset="100%"></stop>
        </linearGradient>
    </defs>
    <g id="页面-1" stroke="none" stroke-width="1" fill="none" fill-rule="evenodd">
        <g id="设置-未选中">
            <rect id="diban" fill="#D8D8D8" opacity="0" x="0" y="0" width="54" height="54"></rect>
            <polygon id="矩形" fill="url(#linearGradient-1)" points="10.3366316 18.66388 27 9.39913674 43.5421121 18.0457976 43.5421121 38 26.9393719 46.1166064 10.3366316 38 10.3366316 27"></polygon>
            <path d="M46,20.2140385 L46,34.7859615 C46,36.9139891 44.8377935,38.8596144 42.9699618,39.9134948 L30.0404151,47.2095897 C28.1518296,48.2634701 25.8481704,48.2634701 23.9595849,47.2095897 L11.0300382,39.9134948 C9.14145277,38.8596144 8,36.8937222 8,34.7859615 L8,20.2140385 C8,18.0860109 9.16220645,16.1403856 11.0300382,15.0865052 L23.9595849,7.79041028 C25.8481704,6.73652991 28.1518296,6.73652991 30.0404151,7.79041028 L42.9699618,15.0865052 C44.8377936,16.1403856 46,18.0860109 46,20.2140385 Z M42.8454397,20.2140385 C42.8454397,19.200692 42.2850901,18.2481463 41.3926816,17.741473 L28.4631349,10.4453781 C27.5499727,9.93870486 26.4500273,9.93870486 25.5368651,10.4453781 L12.6073184,17.741473 C11.6941563,18.2481463 11.1545604,19.200692 11.1545604,20.2140385 L11.1545604,34.7859615 C11.1545604,35.799308 11.7149099,36.7518537 12.6073184,37.258527 L25.5368651,44.5546219 C26.4500273,45.0612951 27.5499727,45.0612951 28.4631349,44.5546219 L41.3926816,37.258527 C42.3058438,36.7518537 42.8454397,35.799308 42.8454397,34.7859615 L42.8454397,20.2140385 Z" id="形状" fill="url(#linearGradient-2)"></path>
            <path d="M19.7673403,27.368265 C19.7673403,23.4162135 23.0464227,20.1937716 27.1141453,20.1937716 C31.1818679,20.1937716 34.4609503,23.4162135 34.4609503,27.368265 C34.4609503,31.3203164 31.1611142,34.5427583 27.1141453,34.5427583 C23.0671764,34.5427583 19.7673403,31.3608502 19.7673403,27.368265 Z" id="路径" fill="#FFFFFF"></path>
            <path d="M22.9219006,27.368265 C22.9219006,29.6381612 24.8104861,31.4621849 27.1141453,31.4621849 C29.4178045,31.4621849 31.30639,29.6178942 31.30639,27.368265 C31.30639,25.1186357 29.4178045,23.274345 27.1141453,23.274345 C24.8104861,23.274345 22.9219006,25.1389026 22.9219006,27.368265 Z" id="路径" fill="url(#linearGradient-3)"></path>
        </g>
    </g>
</svg>