<?xml version="1.0" encoding="UTF-8"?>
<svg width="44px" height="44px" viewBox="0 0 44 44" version="1.1" xmlns="http://www.w3.org/2000/svg" xmlns:xlink="http://www.w3.org/1999/xlink">
    <title>常见问题</title>
    <g id="页面-1" stroke="none" stroke-width="1" fill="none" fill-rule="evenodd">
        <g id="常见问题">
            <rect id="矩形" fill="#FF0000" opacity="0" x="0" y="0" width="44" height="44"></rect>
            <g id="编组-14" transform="translate(6.000000, 6.000000)">
                <rect id="矩形" fill="#C8E2FA" x="14" y="13" width="21" height="22" rx="10.5"></rect>
                <g id="编组-9">
                    <path d="M26,1.25 C27.3116763,1.25 28.4991763,1.78166186 29.3587572,2.64124279 C30.2183381,3.50082372 30.75,4.68832372 30.75,6 L30.75,23.0666667 C30.75,23.9437826 30.5082864,24.7851965 30.0730914,25.5105215 C29.6378964,26.2358465 29.0092199,26.8450827 28.2352941,27.2578431 L18.2352941,32.5911765 C16.8382353,33.3362745 15.1617647,33.3362745 13.7647059,32.5911765 L3.76470588,27.2578431 C2.9907801,26.8450827 2.36210363,26.2358465 1.9269086,25.5105215 C1.49171358,24.7851965 1.25,23.9437826 1.25,23.0666667 L1.25,6 C1.25,4.68832372 1.78166186,3.50082372 2.64124279,2.64124279 C3.50082372,1.78166186 4.68832372,1.25 6,1.25 Z" id="矩形" stroke="#000000" stroke-width="2.5"></path>
                    <path d="M16.2215726,20.6970314 C15.5689182,20.6970314 15.1337484,20.2630822 15.1337484,19.6122585 C15.1337484,19.1783093 15.1337484,17.8766619 16.4390572,17.0087635 C16.6774075,16.8339034 16.8026016,16.7588776 17.0917116,16.5750144 C17.9313546,16.0368294 19.0498755,15.4902415 19.4850453,13.9715195 C19.7025299,12.8867466 19.4850453,12.0190483 18.8321902,11.15115 C18.3972211,10.5003262 17.5268814,10.0663771 16.2215726,10.0663771 C14.481094,10.0663771 13.610955,10.7172008 13.1757852,11.3680245 C12.7406153,12.2357228 12.5231308,13.1036211 12.7406153,13.7544448 C12.9580999,14.4052686 12.5231308,14.8392177 11.8704763,15.0560923 C11.2178219,15.2729668 10.7150393,14.7986038 10.5651675,14.4052686 C10.1301984,13.1036211 10.5651675,11.3680245 11.6529918,10.066177 C12.740816,8.76432949 14.481094,7.89703135 16.4390572,7.89703135 C18.3972211,7.89703135 19.9200145,8.54785507 21.0076381,9.84950252 C22.0952616,11.15115 22.3131475,12.8867466 21.8779777,14.4054686 C21.2253233,17.0087635 19.429671,17.9280795 18.1793352,18.5274856 C17.9875314,18.6251191 17.9247338,18.6627321 17.7441654,18.7443601 C17.4482339,18.8878094 17.3091962,19.1783093 17.3091962,19.3953839 L17.3091962,19.6122585 C17.3093968,20.2630822 16.874227,20.6970314 16.2215726,20.6970314 L16.2215726,20.6970314 Z" id="路径" fill="#000000"></path>
                    <circle id="椭圆形" fill="#000000" cx="16.5333333" cy="24" r="1.6"></circle>
                </g>
            </g>
        </g>
    </g>
</svg>