<?xml version="1.0" encoding="UTF-8"?>
<svg width="44px" height="44px" viewBox="0 0 44 44" version="1.1" xmlns="http://www.w3.org/2000/svg" xmlns:xlink="http://www.w3.org/1999/xlink">
    <title>提醒设置</title>
    <g id="页面-1" stroke="none" stroke-width="1" fill="none" fill-rule="evenodd">
        <g id="提醒设置">
            <rect id="矩形" fill="#FF0000" opacity="0" x="0" y="0" width="44" height="44"></rect>
            <g id="编组-7" transform="translate(5.000000, 5.000000)">
                <rect id="矩形" fill="#0084FE" opacity="0.198009673" x="12" y="11" width="24" height="24" rx="12"></rect>
                <g id="编组-2">
                    <path d="M16,1.25 C18.7259455,1.25 21.2210192,2.30158217 23.0847949,4.03280014 C24.9485706,5.7640181 26.1810484,8.17487186 26.3818024,10.893415 L27.4542887,25.4166667 L4.54571134,25.4166667 L5.61819762,10.893415 C5.81895157,8.17487186 7.0514294,5.7640181 8.91520512,4.03280014 C10.7789808,2.30158217 13.2740545,1.25 16,1.25 Z" id="矩形" stroke="#000000" stroke-width="2.5"></path>
                    <path d="M1.33333333,24.1676809 L30.6666667,24.1676809 C31.4030463,24.1676809 32,24.7646345 32,25.5010142 C32,26.2373939 31.4030463,26.8343475 30.6666667,26.8343475 L1.33333333,26.8343475 C0.596953667,26.8343475 4.50902501e-17,26.2373939 0,25.5010142 C-9.01805001e-17,24.7646345 0.596953667,24.1676809 1.33333333,24.1676809 Z" id="矩形" fill="#000000"></path>
                    <path d="M22.4,26.6666667 C22.4,30.2012891 19.5346224,33.0666667 16,33.0666667 C12.4653776,33.0666667 9.6,30.2012891 9.6,26.6666667 C9.6,26.3030756 9.63031952,25.946566 9.68856816,25.5995283 L12.4214956,25.5992378 C12.3207626,25.93744 12.2666667,26.295736 12.2666667,26.6666667 C12.2666667,28.7285297 13.9381369,30.4 16,30.4 C18.0618631,30.4 19.7333333,28.7285297 19.7333333,26.6666667 C19.7333333,26.295736 19.6792374,25.93744 19.5785044,25.5992378 L22.3114318,25.5995283 C22.3696805,25.946566 22.4,26.3030756 22.4,26.6666667 Z" id="形状结合" fill="#000000" fill-rule="nonzero"></path>
                </g>
            </g>
        </g>
    </g>
</svg>