<?xml version="1.0" encoding="UTF-8"?>
<svg width="44px" height="44px" viewBox="0 0 44 44" version="1.1" xmlns="http://www.w3.org/2000/svg" xmlns:xlink="http://www.w3.org/1999/xlink">
    <title>使用说明</title>
    <g id="页面-1" stroke="none" stroke-width="1" fill="none" fill-rule="evenodd">
        <g id="使用说明">
            <rect id="矩形" fill="#FF0000" opacity="0" x="0" y="0" width="44" height="44"></rect>
            <g id="编组-4" transform="translate(6.000000, 4.000000)">
                <rect id="矩形" fill="#0084FE" opacity="0.198009673" x="11" y="14" width="24" height="24" rx="12"></rect>
                <g id="编组">
                    <path d="M19.2336302,19.0776191 C20.8269717,19.0776191 22.2694717,19.7234484 23.3136364,20.767613 C24.357801,21.8117776 25.0036302,23.2542776 25.0036302,24.8476191 C25.0036302,26.4409606 24.357801,27.8834606 23.3136364,28.9276252 C22.2694717,29.9717899 20.8269717,30.6176191 19.2336302,30.6176191 C17.6402887,30.6176191 16.1977887,29.9717899 15.1536241,28.9276252 C14.1094595,27.8834606 13.4636302,26.4409606 13.4636302,24.8476191 C13.4636302,23.2542776 14.1094595,21.8117776 15.1536241,20.767613 C16.1977887,19.7234484 17.6402887,19.0776191 19.2336302,19.0776191 Z" id="椭圆形" stroke="#000000" stroke-width="2.5"></path>
                    <path d="M12.88,34.56 C13.6255844,34.56 14.23,33.9555844 14.23,33.21 C14.23,32.4644156 13.6255844,31.86 12.88,31.86 C12.1344156,31.86 11.53,32.4644156 11.53,33.21 C11.53,33.9555844 12.1344156,34.56 12.88,34.56 Z" id="椭圆形" fill="#000000"></path>
                    <path d="M22.6,0 C25.5823376,0 28,2.41766235 28,5.4 L28,17.28 L25.299,17.28 L25.3,5.4 C25.3,3.96847793 24.1859412,2.79715823 22.7775257,2.70574309 L22.6,2.7 L5.4,2.7 C3.96847793,2.7 2.79715823,3.81405881 2.70574309,5.22247426 L2.7,5.4 L2.7,29.16 C2.7,30.5915221 3.81405881,31.7628418 5.22247426,31.8542569 L5.4,31.86 L12.879,31.86 L12.879,34.559 L5.4,34.56 C2.41766235,34.56 0,32.1423376 0,29.16 L0,5.4 C0,2.41766235 2.41766235,0 5.4,0 L22.6,0 Z" id="形状结合" fill="#212121" fill-rule="nonzero"></path>
                    <path d="M26.65,18.63 C27.3955844,18.63 28,18.0255844 28,17.28 C28,16.5344156 27.3955844,15.93 26.65,15.93 C25.9044156,15.93 25.3,16.5344156 25.3,17.28 C25.3,18.0255844 25.9044156,18.63 26.65,18.63 Z" id="椭圆形" fill="#000000"></path>
                    <line x1="8.56761275" y1="8.5999658" x2="20.1148586" y2="8.5999658" id="路径-2" stroke="#000000" stroke-width="2.5" stroke-linecap="round" stroke-linejoin="round"></line>
                    <line x1="8.56761275" y1="15.0799658" x2="14.0312284" y2="15.0799658" id="路径-2备份" stroke="#000000" stroke-width="2.5" stroke-linecap="round" stroke-linejoin="round"></line>
                    <line x1="23.6065124" y1="28.6747102" x2="27.469872" y2="32.5380698" id="路径-2备份-2" stroke="#000000" stroke-width="2.5" stroke-linecap="round" stroke-linejoin="round"></line>
                </g>
            </g>
        </g>
    </g>
</svg>