<?xml version="1.0" encoding="UTF-8"?>
<svg width="54px" height="54px" viewBox="0 0 54 54" version="1.1" xmlns="http://www.w3.org/2000/svg" xmlns:xlink="http://www.w3.org/1999/xlink">
    <title>加号</title>
    <g id="页面-1" stroke="none" stroke-width="1" fill="none" fill-rule="evenodd">
        <g id="加号">
            <rect id="diban" fill="#D8D8D8" opacity="0" x="0" y="0" width="54" height="54"></rect>
            <path d="M45.2450087,22.8813724 C45.8490017,22.8813724 46.4291529,23.0005815 46.9854623,23.2389998 C47.5417717,23.4774181 48.0186083,23.7953092 48.4159721,24.192673 C48.8133359,24.5900368 49.131227,25.0668734 49.3696453,25.6231828 C49.6080636,26.1794921 49.7272727,26.7596433 49.7272727,27.3636364 C49.7272727,27.9994185 49.6080636,28.587517 49.3696453,29.1279318 C49.131227,29.6683466 48.8133359,30.1372359 48.4159721,30.5345997 C48.0186083,30.9319636 47.5417717,31.2498546 46.9854623,31.4882729 C46.4291529,31.7266912 45.8490017,31.8459004 45.2450087,31.8459004 L31.8459004,31.8459004 L31.8459004,45.2450087 C31.8459004,45.8807909 31.7266912,46.4688893 31.4882729,47.0093041 C31.2498546,47.5497189 30.9319636,48.0186083 30.5345997,48.4159721 C30.1372359,48.8133359 29.6603993,49.131227 29.1040899,49.3696453 C28.5477806,49.6080636 27.9676294,49.7272727 27.3636364,49.7272727 C26.7278542,49.7272727 26.1397558,49.6080636 25.599341,49.3696453 C25.0589261,49.131227 24.5900368,48.8133359 24.192673,48.4159721 C23.7953092,48.0186083 23.4774181,47.5497189 23.2389998,47.0093041 C23.0005815,46.4688893 22.8813724,45.8807909 22.8813724,45.2450087 L22.8813724,31.8459004 L9.482264,31.8459004 C8.84648188,31.8459004 8.25838341,31.7266912 7.7179686,31.4882729 C7.17755379,31.2498546 6.70866447,30.9319636 6.31130064,30.5345997 C5.91393681,30.1372359 5.59604575,29.6683466 5.35762745,29.1279318 C5.11920915,28.587517 5,27.9994185 5,27.3636364 C5,26.7596433 5.11920915,26.1794921 5.35762745,25.6231828 C5.59604575,25.0668734 5.91393681,24.5900368 6.31130064,24.192673 C6.70866447,23.7953092 7.17755379,23.4774181 7.7179686,23.2389998 C8.25838341,23.0005815 8.84648188,22.8813724 9.482264,22.8813724 L22.8813724,22.8813724 L22.8813724,9.482264 C22.8813724,8.87827098 23.0005815,8.29811979 23.2389998,7.74181043 C23.4774181,7.18550107 23.7953092,6.70866447 24.192673,6.31130064 C24.5900368,5.91393681 25.0589261,5.59604575 25.599341,5.35762745 C26.1397558,5.11920915 26.7278542,5 27.3636364,5 C28.6034115,5 29.6603993,5.43710021 30.5345997,6.31130064 C31.4088002,7.18550107 31.8459004,8.24248885 31.8459004,9.482264 L31.8459004,22.8813724 L45.2450087,22.8813724 Z" id="路径" fill="#000000" fill-rule="nonzero"></path>
        </g>
    </g>
</svg>