<?xml version="1.0" encoding="UTF-8"?>
<svg width="34px" height="34px" viewBox="0 0 34 34" version="1.1" xmlns="http://www.w3.org/2000/svg" xmlns:xlink="http://www.w3.org/1999/xlink">
    <title>呼吸</title>
    <g id="页面-1" stroke="none" stroke-width="1" fill="none" fill-rule="evenodd">
        <g id="呼吸">
            <rect id="矩形" x="0" y="0" width="34" height="34"></rect>
            <path d="M20.1918755,7.31812005 C18.2479105,8.45672824 19.0732755,9.82057686 19.1283156,10.4267621 C19.1317481,10.5987274 18.1392823,11.2032448 17,11.1711118 C16.0237202,11.1435762 14.8748319,10.5001547 14.8823664,10.387904 C14.9374065,9.80503367 15.4891814,8.31511222 13.8680563,7.31812005 C12.2469312,6.32112789 7.703567,7.91653365 5.51768946,14.3980522 C3.33181191,20.8795708 3.57556083,24.7342869 5.8086156,25.9855153 C8.04167037,27.2367437 11.8385142,27.0203828 13.8680563,25.7912252 C15.8975983,24.5620676 15.416938,16.5789876 15.3506574,15.2840152 C15.7014704,14.7926942 16.0825047,14.1335458 17,14.1710634 C17.9174953,14.2085809 18.2962287,14.6205768 18.7194464,15.2840152 C18.6617932,16.4832766 18.2486056,24.0391815 19.8595624,25.7912252 C21.4705191,27.5432688 25.945423,27.2056573 28.1784777,25.9544289 C30.4115325,24.7032005 30.6788701,20.8795708 28.4929925,14.4369102 C26.3149778,7.99424969 22.1358405,6.17951186 20.1918755,7.31812005 Z" fill="#000000" fill-rule="nonzero"></path>
        </g>
    </g>
</svg>