<?xml version="1.0" encoding="UTF-8"?>
<svg width="30px" height="30px" viewBox="0 0 30 30" version="1.1" xmlns="http://www.w3.org/2000/svg" xmlns:xlink="http://www.w3.org/1999/xlink">
    <title>搜索</title>
    <g id="页面-1" stroke="none" stroke-width="1" fill="none" fill-rule="evenodd">
        <g id="搜索" fill="#000000" fill-rule="nonzero">
            <rect id="矩形" opacity="0" x="0" y="0" width="30" height="30"></rect>
            <path d="M27.7514263,26.4413074 L23.3307885,21.7153769 C25.1249632,19.559089 26.1067831,16.869939 26.1067831,14.0413635 C26.1067831,7.40319747 20.699313,2 14.0508853,2 C7.4074701,2 2,7.40319747 2,14.0413635 C2,20.6795296 7.4074701,26.082727 14.0508853,26.082727 C15.7902425,26.082727 17.4697986,25.7191962 19.0397195,25.0020933 C19.5081896,24.7879758 19.7125097,24.2401752 19.4982228,23.7770548 C19.2839069,23.3089259 18.7357022,23.1047672 18.2721865,23.3189138 C16.9415275,23.9214596 15.521138,24.2302163 14.0508853,24.2302163 C8.42915733,24.2302163 3.85400465,19.6586786 3.85400465,14.0413925 C3.85400465,8.42404848 8.42915733,3.85251078 14.0508853,3.85251078 C19.6726423,3.85251078 24.247795,8.42407743 24.247795,14.0413635 C24.247795,16.6856983 23.2360746,19.1905786 21.407016,21.0978637 C21.0531645,21.466403 21.0631313,22.0540104 21.4319331,22.4075823 C21.4618336,22.4324797 21.4967465,22.4424387 21.526647,22.4673361 C21.5515641,22.5021924 21.5665143,22.5470077 21.5964148,22.581893 L26.3908378,27.7061818 C26.5702698,27.9004104 26.8194695,28 27.0686404,28 C27.2979065,28 27.5221892,27.9153489 27.7015921,27.7510261 C28.0803607,27.4024047 28.1002944,26.8147683 27.7514263,26.4413074 L27.7514263,26.4413074 Z" id="路径"></path>
        </g>
    </g>
</svg>