<?xml version="1.0" encoding="UTF-8"?>
<svg width="48px" height="48px" viewBox="0 0 48 48" version="1.1" xmlns="http://www.w3.org/2000/svg" xmlns:xlink="http://www.w3.org/1999/xlink">
    <title>日历</title>
    <defs>
        <linearGradient x1="11.1961451%" y1="0%" x2="88.8038549%" y2="100%" id="linearGradient-1">
            <stop stop-color="#009FFF" offset="0%"></stop>
            <stop stop-color="#006CFD" offset="100%"></stop>
        </linearGradient>
    </defs>
    <g id="页面-1" stroke="none" stroke-width="1" fill="none" fill-rule="evenodd">
        <g id="日历">
            <rect id="矩形" fill="#000000" fill-rule="nonzero" opacity="0" x="0" y="0" width="48" height="48"></rect>
            <path d="M32.089295,25.2590333 L24.0024496,25.2590333 L24.0024496,33.5201854 L32.089295,33.5201854 L32.089295,25.2590333 Z M30.4709556,7.08196721 L30.4709556,10.3858602 L17.5322477,10.3858602 L17.5322477,7.08196721 L14.295239,7.08196721 L14.295239,10.3858602 L12.6793019,10.3858602 C10.8975975,10.3858602 9.44262295,11.8726144 9.44262295,13.6929294 L9.44262295,36.8268696 C9.44262295,38.6450671 10.8975975,40.1311475 12.6793019,40.1311475 L35.3231476,40.1311475 C37.100424,40.1311475 38.557377,38.645067 38.557377,36.8268696 L38.557377,13.6929294 C38.557377,11.8726144 37.1003769,10.3858602 35.3231476,10.3858602 L33.7051379,10.3858602 L33.7051379,7.08196721 L30.4709556,7.08196721 Z M35.3231947,36.8268696 L12.6793491,36.8268696 L12.6793491,18.6501886 L35.3231947,18.6501886 L35.3231947,36.8268696 Z" id="形状" fill="url(#linearGradient-1)"></path>
        </g>
    </g>
</svg>